<mxfile host="app.diagrams.net" agent="Mozilla/5.0 (Windows NT 10.0; Win64; x64) AppleWebKit/537.36 (KHTML, like Gecko) Chrome/140.0.0.0 Safari/537.36" version="28.2.3">
  <diagram name="Page-1" id="ihjLAruSZBnNS5wnE6X2">
    <mxGraphModel dx="1381" dy="791" grid="1" gridSize="10" guides="1" tooltips="1" connect="1" arrows="1" fold="1" page="1" pageScale="1" pageWidth="850" pageHeight="1100" math="0" shadow="0">
      <root>
        <mxCell id="0" />
        <mxCell id="1" parent="0" />
        <mxCell id="no_9XqP2394el48JE_pd-17" style="edgeStyle=orthogonalEdgeStyle;rounded=0;orthogonalLoop=1;jettySize=auto;html=1;entryX=0;entryY=0.5;entryDx=0;entryDy=0;" edge="1" parent="1" source="no_9XqP2394el48JE_pd-1" target="no_9XqP2394el48JE_pd-7">
          <mxGeometry relative="1" as="geometry">
            <Array as="points">
              <mxPoint x="280" y="300" />
              <mxPoint x="280" y="150" />
            </Array>
          </mxGeometry>
        </mxCell>
        <mxCell id="no_9XqP2394el48JE_pd-18" style="edgeStyle=orthogonalEdgeStyle;rounded=0;orthogonalLoop=1;jettySize=auto;html=1;entryX=0;entryY=0.5;entryDx=0;entryDy=0;" edge="1" parent="1" source="no_9XqP2394el48JE_pd-1" target="no_9XqP2394el48JE_pd-10">
          <mxGeometry relative="1" as="geometry">
            <Array as="points">
              <mxPoint x="280" y="300" />
              <mxPoint x="280" y="210" />
            </Array>
          </mxGeometry>
        </mxCell>
        <mxCell id="no_9XqP2394el48JE_pd-22" style="edgeStyle=orthogonalEdgeStyle;rounded=0;orthogonalLoop=1;jettySize=auto;html=1;entryX=0;entryY=0.5;entryDx=0;entryDy=0;" edge="1" parent="1" source="no_9XqP2394el48JE_pd-1" target="no_9XqP2394el48JE_pd-11">
          <mxGeometry relative="1" as="geometry" />
        </mxCell>
        <mxCell id="no_9XqP2394el48JE_pd-28" style="edgeStyle=orthogonalEdgeStyle;rounded=0;orthogonalLoop=1;jettySize=auto;html=1;entryX=0;entryY=0.5;entryDx=0;entryDy=0;" edge="1" parent="1" source="no_9XqP2394el48JE_pd-1" target="no_9XqP2394el48JE_pd-13">
          <mxGeometry relative="1" as="geometry" />
        </mxCell>
        <mxCell id="no_9XqP2394el48JE_pd-29" style="edgeStyle=orthogonalEdgeStyle;rounded=0;orthogonalLoop=1;jettySize=auto;html=1;entryX=0;entryY=0.5;entryDx=0;entryDy=0;" edge="1" parent="1" source="no_9XqP2394el48JE_pd-1" target="no_9XqP2394el48JE_pd-14">
          <mxGeometry relative="1" as="geometry" />
        </mxCell>
        <mxCell id="no_9XqP2394el48JE_pd-30" style="edgeStyle=orthogonalEdgeStyle;rounded=0;orthogonalLoop=1;jettySize=auto;html=1;entryX=0;entryY=0.5;entryDx=0;entryDy=0;" edge="1" parent="1" source="no_9XqP2394el48JE_pd-1" target="no_9XqP2394el48JE_pd-16">
          <mxGeometry relative="1" as="geometry" />
        </mxCell>
        <mxCell id="no_9XqP2394el48JE_pd-45" style="edgeStyle=orthogonalEdgeStyle;rounded=0;orthogonalLoop=1;jettySize=auto;html=1;entryX=0;entryY=0.5;entryDx=0;entryDy=0;" edge="1" parent="1" target="no_9XqP2394el48JE_pd-43">
          <mxGeometry relative="1" as="geometry">
            <mxPoint x="120" y="300" as="sourcePoint" />
            <mxPoint x="540" y="180" as="targetPoint" />
            <Array as="points">
              <mxPoint x="280" y="300" />
              <mxPoint x="280" y="180" />
            </Array>
          </mxGeometry>
        </mxCell>
        <mxCell id="no_9XqP2394el48JE_pd-1" value="User" style="shape=umlActor;verticalLabelPosition=bottom;verticalAlign=top;html=1;outlineConnect=0;" vertex="1" parent="1">
          <mxGeometry x="110" y="270" width="30" height="60" as="geometry" />
        </mxCell>
        <mxCell id="no_9XqP2394el48JE_pd-6" value="GoalSync" style="swimlane;whiteSpace=wrap;html=1;" vertex="1" parent="1">
          <mxGeometry x="420" y="100" width="470" height="530" as="geometry" />
        </mxCell>
        <mxCell id="no_9XqP2394el48JE_pd-7" value="Login" style="ellipse;whiteSpace=wrap;html=1;" vertex="1" parent="no_9XqP2394el48JE_pd-6">
          <mxGeometry x="30" y="30" width="90" height="40" as="geometry" />
        </mxCell>
        <mxCell id="no_9XqP2394el48JE_pd-10" value="Register" style="ellipse;whiteSpace=wrap;html=1;" vertex="1" parent="no_9XqP2394el48JE_pd-6">
          <mxGeometry x="30" y="90" width="90" height="40" as="geometry" />
        </mxCell>
        <mxCell id="no_9XqP2394el48JE_pd-49" style="edgeStyle=orthogonalEdgeStyle;rounded=0;orthogonalLoop=1;jettySize=auto;html=1;entryX=0;entryY=0.5;entryDx=0;entryDy=0;dashed=1;" edge="1" parent="no_9XqP2394el48JE_pd-6" source="no_9XqP2394el48JE_pd-11" target="no_9XqP2394el48JE_pd-46">
          <mxGeometry relative="1" as="geometry" />
        </mxCell>
        <mxCell id="no_9XqP2394el48JE_pd-51" value="&amp;lt;&amp;lt;Includes&amp;gt;&amp;gt;" style="edgeLabel;html=1;align=center;verticalAlign=middle;resizable=0;points=[];" vertex="1" connectable="0" parent="no_9XqP2394el48JE_pd-49">
          <mxGeometry x="0.4588" relative="1" as="geometry">
            <mxPoint as="offset" />
          </mxGeometry>
        </mxCell>
        <mxCell id="no_9XqP2394el48JE_pd-11" value="Create Dashboard" style="ellipse;whiteSpace=wrap;html=1;" vertex="1" parent="no_9XqP2394el48JE_pd-6">
          <mxGeometry x="110" y="245" width="90" height="40" as="geometry" />
        </mxCell>
        <mxCell id="no_9XqP2394el48JE_pd-27" style="edgeStyle=orthogonalEdgeStyle;rounded=0;orthogonalLoop=1;jettySize=auto;html=1;dashed=1;" edge="1" parent="no_9XqP2394el48JE_pd-6" source="no_9XqP2394el48JE_pd-12">
          <mxGeometry relative="1" as="geometry">
            <mxPoint x="270" y="210" as="targetPoint" />
          </mxGeometry>
        </mxCell>
        <mxCell id="no_9XqP2394el48JE_pd-12" value="Add Member" style="ellipse;whiteSpace=wrap;html=1;" vertex="1" parent="no_9XqP2394el48JE_pd-6">
          <mxGeometry x="150" y="130" width="90" height="40" as="geometry" />
        </mxCell>
        <mxCell id="no_9XqP2394el48JE_pd-35" style="edgeStyle=orthogonalEdgeStyle;rounded=0;orthogonalLoop=1;jettySize=auto;html=1;exitX=1;exitY=0.5;exitDx=0;exitDy=0;dashed=1;" edge="1" parent="no_9XqP2394el48JE_pd-6" source="no_9XqP2394el48JE_pd-13">
          <mxGeometry relative="1" as="geometry">
            <mxPoint x="270" y="260" as="targetPoint" />
          </mxGeometry>
        </mxCell>
        <mxCell id="no_9XqP2394el48JE_pd-13" value="Add Goal/Saving" style="ellipse;whiteSpace=wrap;html=1;" vertex="1" parent="no_9XqP2394el48JE_pd-6">
          <mxGeometry x="110" y="310" width="90" height="40" as="geometry" />
        </mxCell>
        <mxCell id="no_9XqP2394el48JE_pd-36" style="edgeStyle=orthogonalEdgeStyle;rounded=0;orthogonalLoop=1;jettySize=auto;html=1;dashed=1;" edge="1" parent="no_9XqP2394el48JE_pd-6" source="no_9XqP2394el48JE_pd-14">
          <mxGeometry relative="1" as="geometry">
            <mxPoint x="270" y="330" as="targetPoint" />
          </mxGeometry>
        </mxCell>
        <mxCell id="no_9XqP2394el48JE_pd-14" value="Mark goal done" style="ellipse;whiteSpace=wrap;html=1;" vertex="1" parent="no_9XqP2394el48JE_pd-6">
          <mxGeometry x="110" y="380" width="90" height="40" as="geometry" />
        </mxCell>
        <mxCell id="no_9XqP2394el48JE_pd-24" style="edgeStyle=orthogonalEdgeStyle;rounded=0;orthogonalLoop=1;jettySize=auto;html=1;entryX=1;entryY=0.5;entryDx=0;entryDy=0;dashed=1;" edge="1" parent="no_9XqP2394el48JE_pd-6" source="no_9XqP2394el48JE_pd-15" target="no_9XqP2394el48JE_pd-11">
          <mxGeometry relative="1" as="geometry">
            <mxPoint x="300" y="270" as="targetPoint" />
            <Array as="points">
              <mxPoint x="270" y="210" />
              <mxPoint x="270" y="265" />
            </Array>
          </mxGeometry>
        </mxCell>
        <mxCell id="no_9XqP2394el48JE_pd-26" value="&amp;lt;&amp;lt;extends&amp;gt;&amp;gt;" style="edgeLabel;html=1;align=center;verticalAlign=middle;resizable=0;points=[];" vertex="1" connectable="0" parent="no_9XqP2394el48JE_pd-24">
          <mxGeometry x="-0.2258" relative="1" as="geometry">
            <mxPoint as="offset" />
          </mxGeometry>
        </mxCell>
        <mxCell id="no_9XqP2394el48JE_pd-15" value="Remove Member" style="ellipse;whiteSpace=wrap;html=1;" vertex="1" parent="no_9XqP2394el48JE_pd-6">
          <mxGeometry x="150" y="190" width="90" height="40" as="geometry" />
        </mxCell>
        <mxCell id="no_9XqP2394el48JE_pd-16" value="Categorize expenses" style="ellipse;whiteSpace=wrap;html=1;" vertex="1" parent="no_9XqP2394el48JE_pd-6">
          <mxGeometry x="110" y="440" width="90" height="40" as="geometry" />
        </mxCell>
        <mxCell id="no_9XqP2394el48JE_pd-43" value="Delete Account" style="ellipse;whiteSpace=wrap;html=1;" vertex="1" parent="no_9XqP2394el48JE_pd-6">
          <mxGeometry x="140" y="60" width="90" height="40" as="geometry" />
        </mxCell>
        <mxCell id="no_9XqP2394el48JE_pd-46" value="Delete Dashboard" style="ellipse;whiteSpace=wrap;html=1;" vertex="1" parent="no_9XqP2394el48JE_pd-6">
          <mxGeometry x="370" y="245" width="90" height="40" as="geometry" />
        </mxCell>
        <mxCell id="no_9XqP2394el48JE_pd-41" style="edgeStyle=orthogonalEdgeStyle;rounded=0;orthogonalLoop=1;jettySize=auto;html=1;exitX=1;exitY=0.3333333333333333;exitDx=0;exitDy=0;exitPerimeter=0;entryX=0;entryY=0.5;entryDx=0;entryDy=0;fillColor=#008a00;strokeColor=#005700;" edge="1" parent="1" source="no_9XqP2394el48JE_pd-37" target="no_9XqP2394el48JE_pd-12">
          <mxGeometry relative="1" as="geometry" />
        </mxCell>
        <mxCell id="no_9XqP2394el48JE_pd-42" style="edgeStyle=orthogonalEdgeStyle;rounded=0;orthogonalLoop=1;jettySize=auto;html=1;entryX=0;entryY=0.5;entryDx=0;entryDy=0;fillColor=#008a00;strokeColor=#005700;" edge="1" parent="1" source="no_9XqP2394el48JE_pd-37" target="no_9XqP2394el48JE_pd-15">
          <mxGeometry relative="1" as="geometry">
            <Array as="points">
              <mxPoint x="380" y="470" />
              <mxPoint x="380" y="310" />
            </Array>
          </mxGeometry>
        </mxCell>
        <mxCell id="no_9XqP2394el48JE_pd-52" style="edgeStyle=orthogonalEdgeStyle;rounded=0;orthogonalLoop=1;jettySize=auto;html=1;entryX=0.5;entryY=1;entryDx=0;entryDy=0;fillColor=#008a00;strokeColor=#005700;" edge="1" parent="1" source="no_9XqP2394el48JE_pd-37" target="no_9XqP2394el48JE_pd-46">
          <mxGeometry relative="1" as="geometry">
            <Array as="points">
              <mxPoint x="835" y="470" />
            </Array>
          </mxGeometry>
        </mxCell>
        <mxCell id="no_9XqP2394el48JE_pd-37" value="Dashboard Admin User" style="shape=umlActor;verticalLabelPosition=bottom;verticalAlign=top;html=1;outlineConnect=0;" vertex="1" parent="1">
          <mxGeometry x="160" y="450" width="30" height="60" as="geometry" />
        </mxCell>
        <mxCell id="no_9XqP2394el48JE_pd-40" style="edgeStyle=orthogonalEdgeStyle;rounded=0;orthogonalLoop=1;jettySize=auto;html=1;exitX=0.5;exitY=0;exitDx=0;exitDy=0;exitPerimeter=0;fillColor=#008a00;strokeColor=#005700;" edge="1" parent="1" source="no_9XqP2394el48JE_pd-37" target="no_9XqP2394el48JE_pd-1">
          <mxGeometry relative="1" as="geometry">
            <Array as="points">
              <mxPoint x="175" y="320" />
            </Array>
          </mxGeometry>
        </mxCell>
        <mxCell id="no_9XqP2394el48JE_pd-61" style="edgeStyle=orthogonalEdgeStyle;rounded=0;orthogonalLoop=1;jettySize=auto;html=1;entryX=1;entryY=0.5;entryDx=0;entryDy=0;dashed=1;" edge="1" parent="1" source="no_9XqP2394el48JE_pd-53" target="no_9XqP2394el48JE_pd-16">
          <mxGeometry relative="1" as="geometry">
            <Array as="points">
              <mxPoint x="880" y="560" />
              <mxPoint x="880" y="560" />
            </Array>
          </mxGeometry>
        </mxCell>
        <mxCell id="no_9XqP2394el48JE_pd-62" value="&amp;lt;&amp;lt;extends&amp;gt;&amp;gt;" style="edgeLabel;html=1;align=center;verticalAlign=middle;resizable=0;points=[];" vertex="1" connectable="0" parent="no_9XqP2394el48JE_pd-61">
          <mxGeometry x="0.0647" relative="1" as="geometry">
            <mxPoint as="offset" />
          </mxGeometry>
        </mxCell>
        <mxCell id="no_9XqP2394el48JE_pd-53" value="NLP categorizing model" style="swimlane;whiteSpace=wrap;html=1;" vertex="1" parent="1">
          <mxGeometry x="970" y="410" width="190" height="220" as="geometry" />
        </mxCell>
        <mxCell id="no_9XqP2394el48JE_pd-54" value="extract words" style="ellipse;whiteSpace=wrap;html=1;" vertex="1" parent="no_9XqP2394el48JE_pd-53">
          <mxGeometry x="20" y="60" width="70" height="40" as="geometry" />
        </mxCell>
        <mxCell id="no_9XqP2394el48JE_pd-56" value="Process words" style="ellipse;whiteSpace=wrap;html=1;" vertex="1" parent="no_9XqP2394el48JE_pd-53">
          <mxGeometry x="110" y="100" width="70" height="40" as="geometry" />
        </mxCell>
        <mxCell id="no_9XqP2394el48JE_pd-57" value="Categorize expense/goal" style="ellipse;whiteSpace=wrap;html=1;" vertex="1" parent="no_9XqP2394el48JE_pd-53">
          <mxGeometry x="10" y="160" width="120" height="50" as="geometry" />
        </mxCell>
      </root>
    </mxGraphModel>
  </diagram>
</mxfile>
